PathFileType	4	(x/y/z)	S06_PSF_T04
DataRate	CameraRate	NumFrames	NumMarkers	Units	OrigDataRate	OrigDataStartFrame	OrigNumFrames
240	240	7	51	mm	240	257	411
Frame#	Time	Sternum			R.Acromium			L.Acromium			Top.Head			R.ASIS			L.ASIS			R.PSIS			L.PSIS			R.Great.Tro			L.Great.Tro			R.Iliac.Crest			L.Iliac.Crest			V.Sacral			R.Thigh.Upper.Post			R.Thigh.Lower.Ant			R.Thigh.Lower.Post			R.Thigh.Upper.Ant			R.Knee.Lat			R.Knee.Med			R.Shank.Upper.Post			R.Shank.Lower.Ant			R.Shank.Lower.Post			R.Shank.Upper.Ant			R.Ankle.Lat			R.Ankle.Med			R.Heel.Upper			R.Heel.Med			R.Heel.Lat			R.Toe.Lat			R.Toe.Med			R.Toe.Tip			L.Thigh.Upper.Post			L.Thigh.Lower.Ant			L.Thigh.Lower.Post			L.Thigh.Upper.Ant			L.Knee.Lat			L.Knee.Med			L.Shank.Upper.Post			L.Shank.Lower.Ant			L.Shank.Lower.Post			L.Shank.Upper.Ant			L.Ankle.Lat			L.Ankle.Med			L.Heel.Upper			L.Heel.Med			L.Heel.Lat			L.Toe.Lat			L.Toe.Med			L.Toe.Tip			Cervical.Spine			Back			
		X1	Y1	Z1	X2	Y2	Z2	X3	Y3	Z3	X4	Y4	Z4	X5	Y5	Z5	X6	Y6	Z6	X7	Y7	Z7	X8	Y8	Z8	X9	Y9	Z9	X10	Y10	Z10	X11	Y11	Z11	X12	Y12	Z12	X13	Y13	Z13	X14	Y14	Z14	X15	Y15	Z15	X16	Y16	Z16	X17	Y17	Z17	X18	Y18	Z18	X19	Y19	Z19	X20	Y20	Z20	X21	Y21	Z21	X22	Y22	Z22	X23	Y23	Z23	X24	Y24	Z24	X25	Y25	Z25	X26	Y26	Z26	X27	Y27	Z27	X28	Y28	Z28	X29	Y29	Z29	X30	Y30	Z30	X31	Y31	Z31	X32	Y32	Z32	X33	Y33	Z33	X34	Y34	Z34	X35	Y35	Z35	X36	Y36	Z36	X37	Y37	Z37	X38	Y38	Z38	X39	Y39	Z39	X40	Y40	Z40	X41	Y41	Z41	X42	Y42	Z42	X43	Y43	Z43	X44	Y44	Z44	X45	Y45	Z45	X46	Y46	Z46	X47	Y47	Z47	X48	Y48	Z48	X49	Y49	Z49	X50	Y50	Z50	X51	Y51	Z51	

257	1.0667	-165.06	1279.8	356.11	-284.66	1486.9	525.4	-305.71	1484.3	174.28	-247.43	1802.4	345.22	-218.11	1042.1	486.25	-203.86	1045.5	232.07	NaN	NaN	NaN	-410.71	1065	305.41	-287.64	969.67	533.19	-293.03	966.37	174.27	-301.55	1119.1	513.46	-276.09	1114.8	193.43	-423.47	1029.4	349.14	-346.07	728.3	505.25	-308.44	639.8	468.63	-376.07	647.71	479.69	-273.18	721.64	492.65	-389.15	535.34	459.96	-374.24	544.91	332.11	-493.32	325.72	441.28	-451.49	248.89	418.28	-516.51	253.89	420.41	-427.63	320.06	439.48	-518.49	118.92	387.61	-501.13	130.25	305.31	-588.58	82.498	334.42	-579.66	50.405	305.17	-584.65	51.145	369.72	-410.55	35.505	422.75	-377.61	41.528	302.42	-313.73	48.733	352.8	-151.37	732.51	189.22	-85.376	671.32	252.89	-142.38	642.97	205.57	-103.47	763.22	234.35	-127.28	552.63	224.28	-105.43	563.68	346.61	-97.19	324.65	234.49	-15.906	288.27	227.17	-75.799	255.36	250.07	-39.843	354.88	217.96	19.566	136.06	241.28	30.85	162.98	328.92	-32.815	66.887	293.25	-9.0565	43.828	325.19	-14.866	43.423	263.56	145.38	113.79	209.15	170.84	129.91	324.09	221.69	175.09	264.58	-348.19	1538.4	352.43	-406.45	1266.3	355.12
258	1.0708	-159.47	1278.8	356.01	-279.17	1485.9	525.28	-300.21	1483.2	174.14	-242.15	1801.4	344.98	-212.56	1041	486.12	-198.35	1044.4	231.87	NaN	NaN	NaN	-405.17	1064	305.16	-282.26	968.68	533.03	-287.52	965.36	174.04	-295.98	1118	513.29	-270.6	1113.8	193.23	-417.92	1028.4	348.88	-341.64	727.66	505.13	-304.34	639.03	468.48	-371.93	647.18	479.57	-268.81	720.77	492.43	-385.59	534.86	459.74	-370.75	544.46	331.9	-491.1	325.96	441.16	-449.83	248.88	418.01	-514.8	254.34	420.34	-425.45	319.86	439.22	-517.88	119.37	387.37	-500.52	130.58	305.04	-588.24	83.167	334.22	-579.47	51.026	304.99	-584.46	51.84	369.55	-410.49	35.578	422.65	-377.45	41.312	302.32	-313.56	48.343	352.74	-146.63	730.97	189.23	-80.955	669.87	253.31	-137.97	641.48	206.02	-98.818	761.72	234.41	-122.79	551.28	225.04	-101.14	562.63	347.55	-90.012	323.51	235.52	-8.2529	288.1	228.37	-67.795	254.46	251.22	-32.991	354.43	219.09	29.15	136.2	242.65	39.901	163.42	330.26	-22.444	66.307	294.55	1.6133	43.61	326.62	-4.0358	42.975	264.97	155.45	115.51	210.87	180.37	132.3	325.81	230.79	178.1	266.34	-342.68	1537.4	352.27	-400.85	1265.3	354.97
259	1.075	-153.87	1277.7	355.89	-273.66	1484.9	525.14	-294.7	1482.2	173.99	-236.87	1800.5	344.74	-207	1039.9	485.98	-192.82	1043.4	231.65	NaN	NaN	NaN	-399.62	1063	304.9	-276.86	967.69	532.86	-281.96	964.35	173.81	-290.42	1116.9	513.11	-265.11	1112.7	193.03	-412.37	1027.4	348.62	-337.12	727.02	505.01	-300.13	638.27	468.32	-367.69	646.64	479.45	-264.36	719.92	492.19	-381.9	534.38	459.53	-367.12	543.99	331.71	-488.79	326.21	441.05	-448.1	248.87	417.75	-513.01	254.82	420.29	-423.19	319.67	438.96	-517.24	119.85	387.15	-499.89	130.95	304.79	-587.89	83.904	334.05	-579.27	51.721	304.84	-584.27	52.597	369.39	-410.41	35.648	422.55	-377.28	41.111	302.22	-313.38	47.962	352.68	-141.79	729.5	189.31	-76.393	668.49	253.77	-133.43	640.06	206.52	-94.031	760.3	234.5	-118.16	550	225.81	-96.757	561.59	348.47	-83.018	322.42	236.48	-0.84371	287.88	229.57	-60.095	253.59	252.29	-26.273	353.97	220.21	38.225	136.28	243.99	48.432	163.74	331.59	-12.692	65.749	295.76	11.593	43.361	327.95	6.1369	42.561	266.28	164.96	117.03	212.6	189.3	134.35	327.56	239.37	180.72	268.19	-337.15	1536.5	352.11	-395.25	1264.2	354.82
260	1.0792	-148.27	1276.6	355.77	-268.14	1483.9	525.01	-289.19	1481.1	173.83	-231.58	1799.5	344.5	-201.44	1038.8	485.84	-187.27	1042.3	231.41	NaN	NaN	NaN	-394.06	1062	304.62	-271.45	966.73	532.67	-276.37	963.34	173.58	-284.86	1115.8	512.91	-259.63	1111.7	192.82	-406.81	1026.3	348.34	-332.52	726.38	504.88	-295.81	637.53	468.17	-363.34	646.09	479.35	-259.84	719.09	491.93	-378.08	533.88	459.34	-363.34	543.5	331.54	-486.4	326.48	440.95	-446.31	248.88	417.52	-511.16	255.32	420.26	-420.85	319.49	438.71	-516.57	120.37	386.96	-499.22	131.36	304.56	-587.52	84.715	333.92	-579.07	52.492	304.71	-584.05	53.42	369.26	-410.33	35.714	422.47	-377.12	40.925	302.13	-313.2	47.593	352.63	-136.84	728.1	189.46	-71.687	667.19	254.26	-128.76	638.71	207.08	-89.109	758.95	234.63	-113.39	548.79	226.57	-92.275	560.59	349.38	-76.214	321.38	237.36	6.3171	287.6	230.77	-52.706	252.74	253.28	-19.691	353.46	221.34	46.784	136.28	245.29	56.44	163.92	332.91	-3.5704	65.201	296.9	20.87	43.069	329.18	15.639	42.162	267.5	173.92	118.31	214.34	197.63	136.05	329.34	247.45	182.93	270.11	-331.61	1535.5	351.95	-389.64	1263.2	354.65
261	1.0833	-142.66	1275.5	355.62	-262.59	1483	524.87	-283.66	1480.1	173.66	-226.28	1798.6	344.25	-195.86	1037.8	485.7	-181.71	1041.3	231.17	NaN	NaN	NaN	-388.5	1060.9	304.34	-266.03	965.78	532.48	-270.75	962.34	173.36	-279.3	1114.8	512.7	-254.16	1110.7	192.6	-401.24	1025.3	348.05	-327.83	725.75	504.75	-291.38	636.79	468.04	-358.89	645.54	479.25	-255.25	718.29	491.67	-374.12	533.37	459.16	-359.42	543	331.4	-483.93	326.76	440.87	-444.46	248.91	417.31	-509.25	255.86	420.25	-418.44	319.3	438.49	-515.88	120.94	386.8	-498.52	131.82	304.37	-587.12	85.604	333.82	-578.86	53.347	304.6	-583.83	54.311	369.16	-410.24	35.774	422.39	-376.95	40.755	302.05	-313.03	47.235	352.59	-131.78	726.78	189.68	-66.834	665.97	254.78	-123.95	637.44	207.68	-84.05	757.69	234.8	-108.47	547.64	227.32	-87.687	559.61	350.25	-69.603	320.39	238.17	13.225	287.24	231.95	-45.633	251.91	254.2	-13.248	352.92	222.45	54.825	136.19	246.56	63.928	163.94	334.21	4.9157	64.654	297.98	29.436	42.725	330.32	24.46	41.764	268.63	182.31	119.32	216.1	205.37	137.37	331.16	255.03	184.69	272.12	-326.05	1534.5	351.79	-384.03	1262.1	354.48
262	1.0875	-137.05	1274.5	355.46	-257.03	1482	524.72	-278.14	1479.1	173.48	-220.98	1797.7	343.99	-190.27	1036.7	485.56	-176.13	1040.3	230.92	NaN	NaN	NaN	-382.94	1059.9	304.05	-260.59	964.86	532.27	-265.08	961.35	173.14	-273.74	1113.7	512.48	-248.67	1109.7	192.36	-395.67	1024.3	347.75	-323.06	725.13	504.61	-286.84	636.07	467.92	-354.33	644.99	479.17	-250.58	717.51	491.39	-370.04	532.85	459	-355.35	542.48	331.27	-481.37	327.07	440.82	-442.55	248.95	417.12	-507.27	256.42	420.26	-415.95	319.13	438.28	-515.15	121.55	386.68	-497.78	132.32	304.21	-586.71	86.574	333.75	-578.64	54.288	304.53	-583.59	55.275	369.08	-410.15	35.83	422.33	-376.78	40.602	301.98	-312.85	46.889	352.56	-126.61	725.54	189.95	-61.835	664.83	255.33	-119	636.25	208.31	-78.856	756.49	235	-103.41	546.57	228.05	-82.989	558.67	351.08	-63.188	319.43	238.92	19.878	286.8	233.13	-38.879	251.09	255.05	-6.9479	352.33	223.55	62.348	135.99	247.8	70.899	163.8	335.49	12.766	64.105	298.98	37.288	42.324	331.39	32.596	41.357	269.69	190.16	120.03	217.87	212.51	138.3	333	262.11	185.98	274.19	-320.48	1533.6	351.62	-378.41	1261.1	354.3
263	1.0917	-131.44	1273.4	355.28	-251.45	1481	524.56	-272.6	1478	173.29	-215.67	1796.8	343.73	-184.67	1035.7	485.41	-170.53	1039.2	230.66	NaN	NaN	NaN	-377.36	1058.9	303.76	-255.14	963.97	532.06	-259.38	960.36	172.93	-268.18	1112.7	512.25	-243.18	1108.7	192.12	-390.09	1023.3	347.46	-318.21	724.52	504.48	-282.2	635.37	467.82	-349.67	644.44	479.1	-245.84	716.76	491.12	-365.84	532.33	458.86	-351.14	541.95	331.18	-478.73	327.4	440.79	-440.59	249.01	416.96	-505.22	257.01	420.29	-413.39	318.96	438.1	-514.38	122.21	386.6	-497	132.88	304.08	-586.27	87.63	333.73	-578.41	55.32	304.48	-583.33	56.316	369.03	-410.04	35.881	422.27	-376.61	40.466	301.92	-312.67	46.557	352.53	-121.32	724.37	190.28	-56.693	663.77	255.89	-113.9	635.13	208.96	-73.528	755.38	235.23	-98.194	545.56	228.76	-78.177	557.76	351.87	-56.973	318.5	239.61	26.274	286.27	234.29	-32.443	250.26	255.84	-0.79335	351.68	224.64	69.359	135.66	249.01	77.363	163.49	336.76	19.984	63.55	299.92	44.428	41.866	332.38	40.049	40.933	270.67	197.45	120.42	219.65	219.07	138.82	334.88	268.73	186.79	276.34	-314.9	1532.7	351.44	-372.79	1260.1	354.11
